%TF.GenerationSoftware,KiCad,Pcbnew,5.1.9-73d0e3b20d~88~ubuntu18.04.1*%
%TF.CreationDate,2021-03-13T22:18:33-03:00*%
%TF.ProjectId,live-kicad,6c697665-2d6b-4696-9361-642e6b696361,rev?*%
%TF.SameCoordinates,Original*%
%TF.FileFunction,Legend,Bot*%
%TF.FilePolarity,Positive*%
%FSLAX46Y46*%
G04 Gerber Fmt 4.6, Leading zero omitted, Abs format (unit mm)*
G04 Created by KiCad (PCBNEW 5.1.9-73d0e3b20d~88~ubuntu18.04.1) date 2021-03-13 22:18:33*
%MOMM*%
%LPD*%
G01*
G04 APERTURE LIST*
%ADD10C,0.120000*%
%ADD11C,0.150000*%
G04 APERTURE END LIST*
D10*
%TO.C,D1*%
X120340000Y-41495000D02*
X120340000Y-44180000D01*
X118420000Y-41495000D02*
X120340000Y-41495000D01*
X118420000Y-44180000D02*
X118420000Y-41495000D01*
%TO.C,R1*%
X116698500Y-43544258D02*
X116698500Y-43069742D01*
X117743500Y-43544258D02*
X117743500Y-43069742D01*
%TO.C,D1*%
D11*
X119895880Y-45045404D02*
X118895880Y-45045404D01*
X118895880Y-45283500D01*
X118943500Y-45426357D01*
X119038738Y-45521595D01*
X119133976Y-45569214D01*
X119324452Y-45616833D01*
X119467309Y-45616833D01*
X119657785Y-45569214D01*
X119753023Y-45521595D01*
X119848261Y-45426357D01*
X119895880Y-45283500D01*
X119895880Y-45045404D01*
X119895880Y-46569214D02*
X119895880Y-45997785D01*
X119895880Y-46283500D02*
X118895880Y-46283500D01*
X119038738Y-46188261D01*
X119133976Y-46093023D01*
X119181595Y-45997785D01*
%TO.C,R1*%
X117673380Y-45743833D02*
X117197190Y-45410500D01*
X117673380Y-45172404D02*
X116673380Y-45172404D01*
X116673380Y-45553357D01*
X116721000Y-45648595D01*
X116768619Y-45696214D01*
X116863857Y-45743833D01*
X117006714Y-45743833D01*
X117101952Y-45696214D01*
X117149571Y-45648595D01*
X117197190Y-45553357D01*
X117197190Y-45172404D01*
X117673380Y-46696214D02*
X117673380Y-46124785D01*
X117673380Y-46410500D02*
X116673380Y-46410500D01*
X116816238Y-46315261D01*
X116911476Y-46220023D01*
X116959095Y-46124785D01*
%TD*%
M02*
